<svg width="18" height="18" viewBox="0 0 18 18" fill="none" xmlns="http://www.w3.org/2000/svg">
<g clip-path="url(#clip0_53_1762)">
<path fill-rule="evenodd" clip-rule="evenodd" d="M5.95499 9.795C5.74431 9.58406 5.62598 9.29813 5.62598 9C5.62598 8.70188 5.74431 8.41594 5.95499 8.205L10.197 3.9615C10.3015 3.85705 10.4255 3.77421 10.5621 3.7177C10.6986 3.66119 10.8449 3.63212 10.9926 3.63216C11.1404 3.63219 11.2867 3.66133 11.4232 3.7179C11.5597 3.77447 11.6837 3.85738 11.7881 3.96188C11.8926 4.06638 11.9754 4.19043 12.0319 4.32694C12.0884 4.46346 12.1175 4.60977 12.1175 4.75752C12.1174 4.90527 12.0883 5.05156 12.0317 5.18805C11.9751 5.32454 11.8922 5.44855 11.7877 5.553L8.34149 9L11.7885 12.447C11.896 12.5507 11.9817 12.6748 12.0408 12.8121C12.0998 12.9493 12.1309 13.0969 12.1323 13.2463C12.1336 13.3956 12.1052 13.5438 12.0487 13.6821C11.9922 13.8204 11.9088 13.946 11.8032 14.0517C11.6976 14.1574 11.572 14.241 11.4338 14.2976C11.2956 14.3542 11.1474 14.3828 10.9981 14.3815C10.8487 14.3803 10.7011 14.3493 10.5638 14.2904C10.4265 14.2315 10.3023 14.1459 10.1985 14.0385L5.95349 9.795H5.95499Z" fill="#202D36"/>
</g>
<defs>
<clipPath id="clip0_53_1762">
<rect width="18" height="18" fill="white"/>
</clipPath>
</defs>
</svg>
