<svg width="28" height="28" viewBox="0 0 28 28" fill="none" xmlns="http://www.w3.org/2000/svg">
<g clip-path="url(#clip0_383_1358)">
<path d="M15.4 3.09167C14.9961 2.78875 14.5049 2.625 14 2.625C13.4951 2.625 13.0039 2.78875 12.6 3.09167L4.43333 9.21667C4.14354 9.43401 3.90833 9.71584 3.74634 10.0398C3.58434 10.3638 3.5 10.7211 3.5 11.0833V22.1667C3.5 22.7855 3.74583 23.379 4.18342 23.8166C4.621 24.2542 5.21449 24.5 5.83333 24.5H10.3833C10.7237 24.5 11.0501 24.3648 11.2908 24.1241C11.5315 23.8834 11.6667 23.557 11.6667 23.2167V17.5C11.6667 17.1936 11.727 16.8902 11.8443 16.6071C11.9615 16.324 12.1334 16.0668 12.3501 15.8501C12.5668 15.6334 12.824 15.4615 13.1071 15.3443C13.3902 15.227 13.6936 15.1667 14 15.1667C14.3064 15.1667 14.6098 15.227 14.8929 15.3443C15.176 15.4615 15.4332 15.6334 15.6499 15.8501C15.8666 16.0668 16.0385 16.324 16.1557 16.6071C16.273 16.8902 16.3333 17.1936 16.3333 17.5V23.2167C16.3333 23.557 16.4685 23.8834 16.7092 24.1241C16.9499 24.3648 17.2763 24.5 17.6167 24.5H22.1667C22.7855 24.5 23.379 24.2542 23.8166 23.8166C24.2542 23.379 24.5 22.7855 24.5 22.1667V11.0833C24.5 10.7211 24.4157 10.3638 24.2537 10.0398C24.0917 9.71584 23.8565 9.43401 23.5667 9.21667L15.4 3.09167Z" fill="#202D36"/>
</g>
<defs>
<clipPath id="clip0_383_1358">
<rect width="28" height="28" fill="white"/>
</clipPath>
</defs>
</svg>
