<svg width="16" height="16" viewBox="0 0 16 16" fill="none" xmlns="http://www.w3.org/2000/svg">
<g clip-path="url(#clip0_78_36)">
<path d="M6.95869 2.91201C7.51054 2.36037 8.20111 1.96797 8.95748 1.77625C9.71384 1.58452 10.5079 1.60058 11.2559 1.82274C12.0039 2.04489 12.6781 2.46489 13.2072 3.03839C13.7363 3.61189 14.1007 4.31762 14.262 5.08106C14.4233 5.8445 14.3754 6.63732 14.1235 7.37582C13.8716 8.11432 13.4249 8.77109 12.8307 9.2768C12.2364 9.78251 11.5167 10.1184 10.7474 10.249C9.97811 10.3795 9.18784 10.3 8.46002 10.0187L8.28069 9.94534L8.26735 9.94268H7.86069V10.9947C7.86078 11.201 7.78435 11.4 7.64617 11.5532C7.508 11.7064 7.31791 11.8029 7.11269 11.824L7.02735 11.828H5.97535V12.88C5.97545 13.0863 5.89901 13.2853 5.76084 13.4385C5.62266 13.5917 5.43258 13.6882 5.22735 13.7093L5.14202 13.7133H2.48669C2.14002 13.7133 1.85402 13.4513 1.81735 13.1133L1.81335 13.04V11.3C1.81335 11.0688 1.89345 10.8448 2.04002 10.666L2.10669 10.5927L5.77335 6.92534L5.78002 6.90068C5.78208 6.88265 5.78118 6.86441 5.77735 6.84668C5.63308 6.1443 5.66549 5.41708 5.87168 4.73033C6.07787 4.04357 6.45139 3.41876 6.95869 2.91201ZM9.78669 4.79734C9.69384 4.89023 9.6202 5.0005 9.56997 5.12185C9.51974 5.24319 9.49391 5.37325 9.49394 5.50458C9.49397 5.63591 9.51987 5.76595 9.57015 5.88728C9.62044 6.0086 9.69413 6.11883 9.78702 6.21168C9.87991 6.30452 9.99017 6.37816 10.1115 6.42839C10.2329 6.47862 10.3629 6.50446 10.4943 6.50443C10.6256 6.5044 10.7556 6.4785 10.877 6.42821C10.9983 6.37792 11.1085 6.30423 11.2014 6.21134C11.3834 6.02266 11.4841 5.77001 11.4817 5.50781C11.4793 5.24561 11.374 4.99485 11.1885 4.80953C11.003 4.62421 10.7522 4.51916 10.49 4.517C10.2278 4.51485 9.9752 4.6151 9.78669 4.79734Z" fill="white"/>
</g>
<defs>
<clipPath id="clip0_78_36">
<rect width="16" height="16" fill="white"/>
</clipPath>
</defs>
</svg>
